<svg version="1.1" xmlns="http://www.w3.org/2000/svg" xmlns:xlink="http://www.w3.org/1999/xlink" x="0px" y="0px" viewBox="0 0 320 180" xml:space="preserve">
<rect fill="#E5E7EB" width="320" height="180"/>
<path fill="white" d="M93.2,139.4l63.7-106.2c1.4-2.3,4.7-2.3,6.1,0l63.8,106.2c1.4,2.4-0.3,5.4-3,5.4h-67.8c-2.7,0-4.4-3-3.1-5.3
	l10.9-18.6c0.6-1.1,1.8-1.8,3.1-1.8h11.8c2.8,0,4.5-3,3-5.4l-18.7-31.2c-1.4-2.3-4.7-2.3-6.1,0l-36.3,60.6c-0.6,1.1-1.8,1.7-3,1.7
	H96.3C93.5,144.8,91.8,141.8,93.2,139.4z"/>
</svg>
