<svg version="1.1" xmlns="http://www.w3.org/2000/svg" xmlns:xlink="http://www.w3.org/1999/xlink" viewBox="0 0 400 300" xml:space="preserve">
<path fill="#CCCCCC" d="M0 0 L400 0 L400 400 L0 400z"/>
<path fill="#E3E3E3" d="M154.8,149.9c-24.8,41.2-45.1,74.9-45.1,75c0,0.1,8.6,0.2,19.2,0.1l19.2-0.1l25.9-43.3
	c14.2-23.8,25.9-43.3,26-43.3c0.1,0,32.3,53.3,32.5,53.9c0.1,0.1-5.9,0.2-13,0.2h-13.1l-9.6,16.1c-5.3,8.8-9.6,16.1-9.7,16.3
	c-0.1,0.2,18.1,0.2,51.5,0.2c28.4,0,51.6-0.1,51.6-0.2c0-0.2-90.1-149.9-90.2-149.9C199.9,75,179.6,108.7,154.8,149.9z"/>
</svg>
