<?xml version="1.0" standalone="no"?>
<!DOCTYPE svg PUBLIC "-//W3C//DTD SVG 20010904//EN"
 "http://www.w3.org/TR/2001/REC-SVG-20010904/DTD/svg10.dtd">
<svg version="1.0" xmlns="http://www.w3.org/2000/svg"
 width="700.000000pt" height="700.000000pt" viewBox="0 0 700.000000 700.000000"
 preserveAspectRatio="xMidYMid meet">
<metadata>
Created by potrace 1.14, written by Peter Selinger 2001-2017
</metadata>
<g transform="translate(0.000000,700.000000) scale(0.100000,-0.100000)"
fill="#000000" stroke="none">
<path d="M1752 3806 c-958 -1591 -1742 -2896 -1742 -2900 0 -3 334 -5 742 -4
l743 3 1000 1672 c550 920 1002 1673 1005 1673 4 0 1250 -2060 1258 -2082 2
-4 -225 -8 -505 -9 l-508 0 -370 -620 c-203 -341 -371 -624 -373 -629 -2 -7
703 -10 1992 -10 1098 0 1996 3 1996 6 0 10 -3484 5794 -3490 5794 -3 0 -790
-1302 -1748 -2894z"/>
</g>
</svg>
